# xmcd
#
# Track frame offsets: 
#        150
#        12501
#        24840
#        36645
#        47938
#        60271
#        73559
#        87306
#        99987
#        112260
#        125131
#        138883
#        149890
#        162720
#        175414
#        190655
#        204169
#        216174
#        227692
#        241737
#        254720
#        270341
#
# Disc length: 3824 seconds
#
# Revision: 0
# Processed by: cddbd v1.5.2PL0 Copyright (c) Steve Scherf et al.
# Submitted via: ExactAudioCopy v0.99pb4
#
DISCID=490eee16
DTITLE=Various Artist - Pawn Stars! The Pawn Label Story
DYEAR=2003
DGENRE=Soul
TTITLE0=The Memphians - Slidin' In And Out (Of My Neighbor's House)
TTITLE1=The Memphians - Who Will The Next Fool Be
TTITLE2=Willie Clayton - It's Time You Made Up Your Mind
TTITLE3=Willie Clayton - I Must Be Losing You
TTITLE4=Known Facts - He's Got It
TTITLE5=Known Facts - How Can I Believe In You?
TTITLE6=Willie Clayton - Baby, You're Ready
TTITLE7=Silk Storm - Baby, Don't Say No
TTITLE8=Silk Storm - Love Will Make You Feel Better
TTITLE9=Willie Clayton - Too Much Of Nothin'
TTITLE10=Willie Clayton - Gotta Have Money
TTITLE11=Willie Clayton - Hello, How Have You Been
TTITLE12=Willie Clayton - Say Yes To Love
TTITLE13=Jimmy Mack - Love Junkie
TTITLE14=Jimmy Mack - Be Good To The One (That's Good To You)
TTITLE15=Willie Walker - I Love Her
TTITLE16=Willie Walker - Sweet Thing
TTITLE17=Willie Clayton - Abracadabra
TTITLE18=Willie Clayton - When I'm Gone
TTITLE19=Willie Clayton - That Wall
TTITLE20=The Jacksonians - Laugh (Tickle Your Belly Button)
TTITLE21=The Jacksonians - California Dreamin'
EXTD=
EXTT0=
EXTT1=
EXTT2=
EXTT3=
EXTT4=
EXTT5=
EXTT6=
EXTT7=
EXTT8=
EXTT9=
EXTT10=
EXTT11=
EXTT12=
EXTT13=
EXTT14=
EXTT15=
EXTT16=
EXTT17=
EXTT18=
EXTT19=
EXTT20=
EXTT21=
PLAYORDER=
